# xmcd
#
# Track frame offsets: 
#        150
#        20229
#        37742
#        85278
#        109607
#        143595
#        166461
#        190201
#        207210
#        231771
#        254068
#        280250
#        309065
#        342432
#
# Disc length: 4789 seconds
#
# Revision: 0
# Processed by: cddbd v1.5.2PL0 Copyright (c) Steve Scherf et al.
# Submitted via: ExactAudioCopy v0.95a5
#
DISCID=c012b30e
DTITLE=Various Artist - Akella Presents - Blues-Rock - vol.11  CD2
DYEAR=2010
DGENRE=Blues
TTITLE0=Wild Streak - 'Sir' OLIVER MALLY
TTITLE1=The Harder I Will Fall - ROB TOGNONI
TTITLE2=Somebody Loan Me a Dime - RICK DERRINGER
TTITLE3=Fire On the Dry Grass - CRY OF LOVE
TTITLE4=If Heartaches - JOE BONAMASSA
TTITLE5=Come Yo Poppa - The HAMSTERS
TTITLE6=Red Moon Risin' - MICHAEL KATON
TTITLE7=Prisoner Blues - HANK DAVISON
TTITLE8=Business Man - CRAIG ERICKSON
TTITLE9=It Life Don't Kill You (Lovin' Will) - JAY HOOKS
TTITLE10=Drownin' on Dry Land - WES JEANS
TTITLE11=Standing About Crying - PAUL RODGERS
TTITLE12=32 Blues - CHRIS DUARTE
TTITLE13=Black Day - ERIC GALES
EXTD=
EXTT0=
EXTT1=
EXTT2=
EXTT3=
EXTT4=
EXTT5=
EXTT6=
EXTT7=
EXTT8=
EXTT9=
EXTT10=
EXTT11=
EXTT12=
EXTT13=
PLAYORDER=
